# Blender 4.0.2
# www.blender.org
mtllib banana.mtl
o banana_0
v -8.669760 33.037922 0.285767
v -9.260439 31.026703 0.837593
v -5.528624 30.759182 -1.334107
v -5.638798 32.503899 -1.537641
v -5.319870 29.017605 -1.227105
v -9.412567 28.886452 1.095703
v -9.181747 26.426212 1.222660
v -5.021887 27.046261 -1.218714
v -3.035879 21.482651 -1.101206
v -4.542440 25.122131 -1.229219
v -8.530251 24.036247 1.248890
v -6.513781 19.639290 1.263557
v -0.794901 17.910297 -1.315245
v -4.017866 15.552868 1.268810
v 1.785984 14.916042 -1.506191
v -1.039331 12.119036 1.180670
v 4.520054 11.911306 -1.499882
v 1.984295 9.225468 0.850216
v 6.504017 5.653152 -1.379235
v 7.306583 6.572205 -2.330796
v 6.343494 8.990486 -1.721253
v 4.574631 7.115641 -0.111852
v -7.505217 35.375397 -0.929156
v -5.732155 35.004009 -1.938431
v -6.396273 38.065430 -1.090700
v -4.901241 37.521961 -2.209091
v -4.972599 38.421093 -3.894047
v -4.901241 37.521961 -2.209091
v -5.732155 35.004009 -1.938431
v -6.203247 35.088978 -3.887737
v -5.638798 32.503899 -1.537641
v -6.613449 32.684338 -5.025026
v -5.319870 29.017605 -1.227105
v -6.566242 28.978786 -5.718477
v -6.695280 30.861988 -5.498162
v -5.528624 30.759182 -1.334107
v -4.542440 25.122131 -1.229219
v -5.854918 24.767525 -5.886366
v -6.332283 26.846924 -5.844378
v -5.021887 27.046261 -1.218714
v -3.035879 21.482651 -1.101206
v -4.189915 20.868877 -5.901032
v -0.794901 17.910297 -1.315245
v -1.857693 17.134983 -5.799284
v 1.785984 14.916042 -1.506191
v 0.780903 13.923546 -5.825514
v 4.520054 11.911306 -1.499882
v 3.691250 11.028955 -5.499219
v 6.343494 8.990486 -1.721253
v 5.744423 8.346291 -4.668305
v -6.602945 39.219467 -3.947532
v -8.150438 35.538033 -4.014693
v -9.941338 33.278156 -5.220134
v -11.220251 28.835049 -6.053163
v -10.877172 31.166248 -5.784582
v -11.066006 26.153442 -6.173809
v -10.420784 23.524258 -6.184315
v -8.429523 18.623703 -6.163337
v -5.716431 14.305439 -6.157026
v -2.479822 10.685879 -6.071002
v 0.932011 8.091352 -5.820261
v 3.867496 6.335073 -4.823573
v -11.261148 33.506897 -2.613020
v -8.960375 35.722668 -1.978305
v -12.464542 31.263802 -2.541697
v -9.799715 17.889320 -2.580514
v -6.966997 13.386387 -2.650780
v -3.571981 9.608419 -2.787185
v -0.184303 6.910027 -2.781932
v 5.840954 4.843214 -2.241632
v 3.111080 5.525137 -2.686459
v -12.708971 25.901642 -2.430465
v -12.855848 28.780472 -2.433637
v -7.704554 38.350792 -2.250024
v 7.306583 6.572205 -2.330796
v 7.044312 6.128401 -3.546776
v 6.381252 5.279648 -3.600260
v 6.504017 5.653152 -1.379235
v 5.840954 4.843214 -2.241632
v 7.306583 6.572205 -2.330796
v 6.381252 5.279648 -3.600260
v 7.306583 6.572205 -2.330796
v 7.044312 6.128401 -3.546776
v 7.306583 6.572205 -2.330796
v -12.012346 23.088882 -2.486063
v -6.602945 39.219467 -3.947532
v -7.704554 38.350792 -2.250024
v -4.901241 37.521961 -2.209091
v -4.972599 38.421093 -3.894047
v -6.396273 38.065430 -1.090700
v -4.901241 37.521961 -2.209091
vn -0.0797 0.3814 0.9210
vn -0.1506 0.2139 0.9652
vn 0.9183 0.1106 0.3802
vn 0.9183 0.1107 0.3802
vn 0.9265 0.0946 0.3642
vn -0.0797 0.3813 0.9210
vn 0.9125 0.1269 0.3888
vn -0.1662 0.0795 0.9829
vn -0.1654 -0.0000 0.9862
vn 0.9089 0.1735 0.3792
vn 0.9126 0.1269 0.3888
vn 0.8218 0.4104 0.3953
vn 0.8783 0.3004 0.3719
vn -0.1505 -0.0471 0.9875
vn -0.1505 -0.0472 0.9875
vn -0.1267 -0.0714 0.9894
vn 0.7592 0.5452 0.3555
vn -0.1267 -0.0713 0.9894
vn -0.1106 -0.0945 0.9894
vn 0.7591 0.5453 0.3555
vn 0.7112 0.6239 0.3240
vn -0.0634 -0.1268 0.9899
vn 0.7529 0.5627 0.3413
vn -0.0633 -0.1268 0.9899
vn -0.0634 -0.1267 0.9899
vn 0.0241 -0.2213 0.9749
vn 0.7529 0.5627 0.3412
vn 0.3558 -0.3407 0.8703
vn 0.9292 0.3259 0.1745
vn 0.8554 0.3966 0.3331
vn 0.8555 0.3965 0.3331
vn 0.1662 -0.3335 0.9280
vn 0.3557 -0.3406 0.8703
vn -0.0161 0.2611 0.9652
vn 0.9265 0.0945 0.3642
vn 0.9112 -0.0795 0.4043
vn -0.0161 0.2612 0.9652
vn -0.0000 0.0943 0.9955
vn 0.9247 -0.2771 0.2610
vn 0.4808 -0.1733 -0.8595
vn 0.6746 0.0080 -0.7381
vn 0.6746 0.0081 -0.7381
vn 0.9112 -0.0794 0.4043
vn 0.6267 0.1984 -0.7536
vn 0.6180 0.1188 -0.7771
vn 0.6104 0.1511 -0.7776
vn 0.8783 0.3005 0.3718
vn 0.5701 0.1900 -0.7993
vn 0.5950 0.1349 -0.7923
vn 0.8783 0.3004 0.3718
vn 0.5399 0.2785 -0.7943
vn 0.5399 0.2786 -0.7943
vn 0.4983 0.3557 -0.7907
vn 0.4983 0.3556 -0.7907
vn 0.5400 0.2785 -0.7943
vn 0.4608 0.3811 -0.8015
vn 0.5547 0.3171 -0.7692
vn 0.5548 0.3171 -0.7692
vn 0.6649 0.1660 -0.7283
vn 0.5547 0.3172 -0.7692
vn -0.3797 0.1657 -0.9101
vn -0.3809 0.4756 -0.7930
vn -0.3809 0.4755 -0.7930
vn 0.6267 0.1985 -0.7536
vn -0.3632 0.5057 -0.7825
vn 0.6181 0.1188 -0.7771
vn -0.5292 0.0792 -0.8448
vn -0.4823 0.2773 -0.8310
vn -0.4823 0.2774 -0.8309
vn -0.5300 -0.0552 -0.8462
vn -0.5060 -0.1657 -0.8464
vn -0.4831 -0.2455 -0.8404
vn -0.4831 -0.2456 -0.8404
vn -0.5060 -0.1657 -0.8465
vn 0.5701 0.1901 -0.7993
vn -0.4289 -0.3259 -0.8425
vn -0.4288 -0.3259 -0.8425
vn 0.4607 0.3811 -0.8015
vn -0.3402 -0.4105 -0.8460
vn -0.1660 -0.4910 -0.8552
vn -0.0000 -0.6101 -0.7923
vn 0.5548 0.3172 -0.7692
vn -0.8014 0.5877 0.1109
vn -0.7687 0.5313 0.3562
vn -0.8015 0.5877 0.1109
vn -0.9406 0.3082 0.1425
vn -0.8014 0.5878 0.1109
vn -0.8721 -0.4602 0.1662
vn -0.8721 -0.4603 0.1661
vn -0.7870 -0.5963 0.1584
vn -0.6732 -0.7285 0.1268
vn 0.0242 -0.2214 0.9749
vn -0.5163 -0.8502 0.1029
vn -0.2067 -0.9529 0.2219
vn 0.3557 -0.3407 0.8703
vn -0.3316 -0.9387 0.0942
vn -0.2067 -0.9529 0.2218
vn -0.5164 -0.8502 0.1029
vn -0.6732 -0.7286 0.1268
vn -0.4288 -0.3260 -0.8425
vn -0.3403 -0.4105 -0.8460
vn -0.8721 -0.4602 0.1661
vn -0.4288 -0.3259 -0.8426
vn -0.8721 -0.4603 0.1662
vn -0.9757 -0.1430 0.1662
vn -0.9757 -0.1430 0.1661
vn -0.9835 0.0473 0.1743
vn -0.5291 0.0791 -0.8448
vn -0.9406 0.3081 0.1425
vn -0.3632 0.5056 -0.7826
vn -0.9018 0.4107 0.1346
vn -0.3809 0.4756 -0.7929
vn -0.7687 0.5312 0.3562
vn -0.9018 0.4108 0.1346
vn -0.0160 0.2612 0.9652
vn -0.9018 0.4107 0.1345
vn 0.8554 0.3965 0.3331
vn 0.1663 -0.3335 0.9280
vn 0.7049 0.0795 -0.7049
vn 0.7049 0.0794 -0.7049
vn 0.1106 -0.6496 -0.7522
vn 0.7602 -0.6495 0.0161
vn 0.7627 -0.6436 0.0636
vn 0.7703 -0.6352 0.0555
vn 0.7691 -0.6342 0.0795
vn 0.7703 -0.6352 0.0554
vn 0.7846 -0.6175 0.0554
vn -0.1662 0.0796 0.9829
vn -0.1661 0.0796 0.9829
vn -0.9836 0.0473 0.1743
vn -0.9363 -0.3094 0.1663
vn -0.3808 0.4756 -0.7930
vn -0.3632 0.5057 -0.7826
vn 0.2860 0.8116 0.5094
vn 0.2622 0.9055 0.3338
vn 0.3084 0.8942 0.3245
vn 0.3872 0.8216 0.4184
vn 0.2621 0.9055 0.3337
vn 0.2838 0.9556 -0.0792
vn -0.1507 0.2139 0.9652
vn 0.6266 0.1984 -0.7536
vn 0.9265 0.0946 0.3641
vn 0.6266 0.1985 -0.7536
vn -0.9406 0.3082 0.1426
vn -0.9835 0.0473 0.1744
vn -0.5291 0.0792 -0.8448
vn -0.9836 0.0474 0.1743
vn -0.5292 0.0791 -0.8448
vn -0.1653 -0.0000 0.9862
vn 0.9089 0.1736 0.3792
vn -0.9757 -0.1429 0.1661
vt 0.894550 0.724631
vt 0.860763 0.656583
vt 0.956029 0.614813
vt 0.977734 0.698548
vt 0.940392 0.554486
vt 0.836421 0.607559
vt 0.783779 0.525418
vt 0.886129 0.460290
vt 0.751351 0.284561
vt 0.856495 0.408847
vt 0.755030 0.480558
vt 0.660742 0.364167
vt 0.632697 0.169093
vt 0.551603 0.263550
vt 0.509669 0.075945
vt 0.440680 0.180063
vt 0.369105 0.015056
vt 0.331875 0.119011
vt 0.160941 0.076459
vt 0.153246 0.042997
vt 0.240963 0.012009
vt 0.235300 0.086134
vt 0.923904 0.811945
vt 0.976360 0.801887
vt 0.948774 0.889089
vt 0.991203 0.888763
vt 0.864804 0.962061
vt 0.859986 0.992281
vt 0.762680 0.977362
vt 0.778660 0.929154
vt 0.666157 0.967487
vt 0.702803 0.885142
vt 0.538856 0.921676
vt 0.600521 0.820412
vt 0.643352 0.847518
vt 0.592164 0.940859
vt 0.413507 0.835909
vt 0.491102 0.735000
vt 0.529752 0.765169
vt 0.457783 0.866204
vt 0.298686 0.741794
vt 0.386682 0.643886
vt 0.194137 0.628781
vt 0.284884 0.544547
vt 0.104097 0.514159
vt 0.199047 0.444193
vt 0.031065 0.384956
vt 0.126371 0.342103
vt 0.012005 0.259630
vt 0.086105 0.246971
vt 0.888701 0.942253
vt 0.816230 0.881866
vt 0.757188 0.822264
vt 0.674853 0.734536
vt 0.709332 0.771272
vt 0.607677 0.675020
vt 0.570990 0.642516
vt 0.470065 0.547479
vt 0.374255 0.453177
vt 0.284321 0.361876
vt 0.204333 0.282029
vt 0.143357 0.208960
vt 0.810203 0.779608
vt 0.874305 0.838292
vt 0.768783 0.720638
vt 0.542229 0.472013
vt 0.444171 0.379529
vt 0.344143 0.295603
vt 0.258584 0.223602
vt 0.133440 0.107119
vt 0.185546 0.163804
vt 0.676644 0.609770
vt 0.738942 0.678153
vt 0.920409 0.922495
vt 0.040335 0.171683
vt 0.070603 0.170569
vt 0.093991 0.144744
vt 0.077288 0.096413
vt 0.642621 0.572424
s 0
usemtl banana.001
f 1/1/1 2/2/2 3/3/3
f 3/3/4 4/4/5 1/1/6
f 5/5/7 6/6/8 7/7/9
f 7/7/9 8/8/10 5/5/11
f 9/9/12 10/10/13 11/11/14
f 11/11/15 12/12/16 9/9/12
f 13/13/17 9/9/12 12/12/18
f 12/12/16 14/14/19 13/13/20
f 15/15/21 13/13/17 14/14/19
f 14/14/19 16/16/22 15/15/21
f 17/17/23 15/15/21 16/16/24
f 16/16/25 18/18/26 17/17/27
f 19/19/28 20/20/29 21/21/30
f 21/21/31 22/22/32 19/19/33
f 23/23/34 1/1/6 4/4/35
f 4/4/5 24/24/36 23/23/37
f 25/25/38 23/23/34 24/24/36
f 24/24/36 26/26/39 25/25/38
f 27/27/40 28/28/39 29/29/36
f 29/29/36 30/30/41 27/27/40
f 30/30/42 29/29/43 31/31/5
f 31/31/35 32/32/44 30/30/42
f 33/33/7 34/34/45 35/35/46
f 35/35/46 36/36/4 33/33/7
f 37/37/47 38/38/48 39/39/49
f 39/39/49 40/40/10 37/37/47
f 37/37/50 41/41/12 42/42/51
f 42/42/52 38/38/48 37/37/47
f 41/41/12 43/43/17 44/44/53
f 44/44/54 42/42/55 41/41/12
f 44/44/53 43/43/17 45/45/21
f 45/45/21 46/46/56 44/44/54
f 45/45/21 47/47/27 48/48/57
f 48/48/58 46/46/56 45/45/21
f 47/47/27 49/49/31 50/50/59
f 50/50/59 48/48/60 47/47/27
f 51/51/61 27/27/40 30/30/41
f 30/30/42 52/52/62 51/51/61
f 52/52/63 30/30/42 32/32/64
f 32/32/64 53/53/65 52/52/63
f 34/34/66 54/54/67 55/55/68
f 55/55/69 35/35/46 34/34/66
f 56/56/70 39/39/49 38/38/48
f 38/38/48 57/57/71 56/56/70
f 38/38/48 42/42/52 58/58/72
f 58/58/73 57/57/74 38/38/75
f 42/42/55 44/44/53 59/59/76
f 59/59/77 58/58/73 42/42/55
f 59/59/76 44/44/53 46/46/78
f 46/46/56 60/60/79 59/59/77
f 46/46/78 48/48/58 61/61/80
f 61/61/80 60/60/79 46/46/56
f 48/48/57 50/50/59 62/62/81
f 62/62/81 61/61/80 48/48/82
f 63/63/83 1/1/6 23/23/34
f 23/23/34 64/64/84 63/63/85
f 63/63/83 65/65/86 2/2/2
f 2/2/2 1/1/6 63/63/87
f 14/14/19 12/12/16 66/66/88
f 66/66/89 67/67/90 14/14/19
f 16/16/22 14/14/19 67/67/90
f 67/67/90 68/68/91 16/16/25
f 18/18/92 16/16/24 68/68/91
f 68/68/91 69/69/93 18/18/26
f 70/70/94 19/19/95 22/22/32
f 22/22/32 71/71/96 70/70/97
f 69/69/93 61/61/80 62/62/81
f 62/62/81 71/71/96 69/69/98
f 68/68/99 60/60/79 61/61/80
f 61/61/80 69/69/93 68/68/91
f 67/67/90 59/59/100 60/60/101
f 60/60/79 68/68/99 67/67/90
f 66/66/102 58/58/73 59/59/77
f 59/59/103 67/67/90 66/66/104
f 54/54/67 56/56/70 72/72/105
f 72/72/106 73/73/107 54/54/108
f 55/55/68 65/65/109 63/63/83
f 63/63/83 53/53/110 55/55/68
f 74/74/111 51/51/61 52/52/112
f 52/52/62 64/64/113 74/74/114
f 23/23/115 25/25/38 74/74/111
f 74/74/116 64/64/113 23/23/34
f 21/21/117 17/17/27 18/18/26
f 18/18/92 22/22/118 21/21/31
f 49/49/31 75/75/29 76/76/119
f 76/76/120 50/50/59 49/49/30
f 50/50/59 76/76/120 77/77/121
f 77/77/121 62/62/81 50/50/59
f 22/22/32 18/18/26 69/69/93
f 69/69/93 71/71/96 22/22/32
f 62/62/81 77/77/121 71/71/96
f 78/19/122 79/70/123 80/20/124
f 79/70/123 81/77/125 82/78/126
f 81/77/125 83/76/127 84/75/124
f 72/72/106 7/7/9 6/6/128
f 6/6/129 73/73/130 72/72/106
f 12/12/16 11/11/14 85/79/131
f 85/79/131 66/66/102 12/12/16
f 85/79/131 57/57/71 58/58/73
f 58/58/73 66/66/88 85/79/131
f 64/64/84 52/52/63 63/63/83
f 52/52/132 53/53/133 63/63/83
f 77/77/121 70/70/97 71/71/96
f 86/51/134 87/74/135 88/28/136
f 88/28/136 89/27/137 86/51/134
f 87/74/138 90/25/139 91/26/136
f 2/2/140 6/6/128 5/5/7
f 5/5/7 3/3/3 2/2/140
f 32/32/141 31/31/142 36/36/3
f 36/36/4 35/35/46 32/32/143
f 53/53/65 32/32/64 35/35/46
f 35/35/46 55/55/68 53/53/133
f 65/65/144 73/73/145 6/6/8
f 6/6/128 2/2/140 65/65/86
f 54/54/146 73/73/147 65/65/109
f 65/65/86 55/55/68 54/54/148
f 7/7/149 11/11/15 10/10/47
f 10/10/47 8/8/150 7/7/149
f 34/34/66 33/33/7 40/40/150
f 40/40/10 39/39/49 34/34/45
f 56/56/70 54/54/108 34/34/66
f 34/34/66 39/39/49 56/56/70
f 57/57/71 85/79/131 72/72/106
f 72/72/105 56/56/70 57/57/71
f 72/72/106 85/79/131 11/11/15
f 11/11/15 7/7/9 72/72/151
